<?xml version="1.0" encoding="UTF-8"?>
<svg width="48" height="48" viewBox="0 0 48 48" fill="none" xmlns="http://www.w3.org/2000/svg">
    <path d="M24 4C12.95 4 4 12.95 4 24C4 35.05 12.95 44 24 44C35.05 44 44 35.05 44 24C44 12.95 35.05 4 24 4ZM24 40C15.16 40 8 32.84 8 24C8 15.16 15.16 8 24 8C32.84 8 40 15.16 40 24C40 32.84 32.84 40 24 40Z" fill="#1a5f1a"/>
    <path d="M24 12C18.48 12 14 16.48 14 22C14 27.52 18.48 32 24 32C29.52 32 34 27.52 34 22C34 16.48 29.52 12 24 12ZM24 28C20.69 28 18 25.31 18 22C18 18.69 20.69 16 24 16C27.31 16 30 18.69 30 22C30 25.31 27.31 28 24 28Z" fill="#1a5f1a"/>
    <path d="M24 20C22.9 20 22 20.9 22 22C22 23.1 22.9 24 24 24C25.1 24 26 23.1 26 22C26 20.9 25.1 20 24 20Z" fill="#1a5f1a"/>
</svg> 